<svg xmlns="http://www.w3.org/2000/svg" width="124" height="24" viewBox="0 0 124 24">
    <defs>
        <clipPath id="yvjhtra2da">
            <path data-name="사각형 788" transform="translate(20 16)" style="fill:#fff" d="M0 0h124v24H0z"/>
        </clipPath>
    </defs>
    <g data-name="마스크 그룹 29" transform="translate(-20 -16)" style="clip-path:url(#yvjhtra2da)">
        <g data-name="Layer 2">
            <g data-name="Layer 1">
                <path data-name="패스 1" d="M4.938 7.79a7.874 7.874 0 0 1 1.662.231 3.431 3.431 0 0 1 1.32.561 2.65 2.65 0 0 1 .869 1.1A3.926 3.926 0 0 1 9.1 11.3a3.112 3.112 0 0 1-.561 1.87 2.793 2.793 0 0 1-1.661 1.1 2.947 2.947 0 0 1 1.925.858 3.123 3.123 0 0 1 .715 2.2 4.85 4.85 0 0 1-.22 1.507 3.1 3.1 0 0 1-.77 1.254 3.937 3.937 0 0 1-1.408.847 6.214 6.214 0 0 1-2.2.319H0V7.79zm-1.1 5.5a3.167 3.167 0 0 0 1.793-.407 1.573 1.573 0 0 0 .561-1.364 1.628 1.628 0 0 0-.55-1.3 2.661 2.661 0 0 0-1.628-.4h-1.1v3.519zm.308 5.917a3.068 3.068 0 0 0 1.716-.429 1.782 1.782 0 0 0 .66-1.606 2.2 2.2 0 0 0-.176-.957 1.529 1.529 0 0 0-.473-.627 1.815 1.815 0 0 0-.7-.33 4.531 4.531 0 0 0-.9-.1H2.947v4.047z" transform="translate(20 17.779)" style="fill:#333"/>
                <path data-name="패스 2" d="M9.831 13.684a3.3 3.3 0 0 1 .308-1.474 2.617 2.617 0 0 1 .836-.957 3.574 3.574 0 0 1 1.276-.528 6.6 6.6 0 0 1 1.507-.165 7.38 7.38 0 0 1 2.046.231 2.925 2.925 0 0 1 1.21.638 2.068 2.068 0 0 1 .583.99 5.015 5.015 0 0 1 .154 1.254v5.312a5.785 5.785 0 0 0 .077 1.1 3.156 3.156 0 0 0 .275.847h-2.751a1.793 1.793 0 0 1-.22-.517L15 19.886a2.266 2.266 0 0 1-1.1 1.023 5.059 5.059 0 0 1-1.672.231 2.947 2.947 0 0 1-1.32-.2 2.035 2.035 0 0 1-.825-.649 2.639 2.639 0 0 1-.451-.935 3.64 3.64 0 0 1-.143-1.023 4.069 4.069 0 0 1 .166-1.233 2.2 2.2 0 0 1 .495-.88 2.87 2.87 0 0 1 .869-.616 6.379 6.379 0 0 1 1.232-.451l1.606-.4a1.771 1.771 0 0 0 .88-.418 1.1 1.1 0 0 0 .242-.77 1.1 1.1 0 0 0-1.309-1.243 1.276 1.276 0 0 0-.99.363 1.331 1.331 0 0 0-.33.957v.286H9.831zm4.553 2.529a4.476 4.476 0 0 1-.594.187 2.255 2.255 0 0 0-1.232.561 1.507 1.507 0 0 0-.363 1.1 1.9 1.9 0 0 0 .242 1 .88.88 0 0 0 .825.407 2.321 2.321 0 0 0 .594-.077 1.661 1.661 0 0 0 .561-.275 1.375 1.375 0 0 0 .418-.484 1.5 1.5 0 0 0 .165-.714v-2.035a2.2 2.2 0 0 1-.616.33" transform="translate(20.947 18.055)" style="fill:#333"/>
                <path data-name="패스 3" d="M21.025 10.821v1.32a3.64 3.64 0 0 1 1.089-1.1 2.463 2.463 0 0 1 1.5-.451h.506v2.474h-.88a2.892 2.892 0 0 0-.737.1 2.068 2.068 0 0 0-.671.308 1.529 1.529 0 0 0-.495.561 1.837 1.837 0 0 0-.187.858v6.049h-2.83V10.821z" transform="translate(21.828 18.058)" style="fill:#333"/>
                <path data-name="패스 4" d="M29.816 19.741a2.54 2.54 0 0 1-1.1 1.1 3.816 3.816 0 0 1-1.595.319 2.87 2.87 0 0 1-2.057-.682 2.815 2.815 0 0 1-.7-2.2V10.8h2.749v6.984a1.65 1.65 0 0 0 .286 1.1 1.177 1.177 0 0 0 .891.308c.979 0 1.463-.561 1.463-1.672V10.8H32.5v10.118h-2.64v-1.177z" transform="translate(22.429 18.079)" style="fill:#333"/>
                <path data-name="패스 5" d="M35.519 10.824v1.188a2.738 2.738 0 0 1 1.1-1.1 3.574 3.574 0 0 1 1.595-.352 2.815 2.815 0 0 1 2.024.682 2.936 2.936 0 0 1 .715 2.2v7.5h-2.684V13.97a1.661 1.661 0 0 0-.275-1.1 1.1 1.1 0 0 0-.9-.308c-.968 0-1.452.561-1.452 1.672v6.709H32.88V10.824z" transform="translate(23.28 18.055)" style="fill:#333"/>
                <path data-name="패스 6" d="M60.146 10.824v1.188a2.683 2.683 0 0 1 1.1-1.1 3.5 3.5 0 0 1 1.584-.352 2.815 2.815 0 0 1 2.024.682 2.936 2.936 0 0 1 .715 2.2v7.5h-2.75V13.97a1.65 1.65 0 0 0-.286-1.1 1.1 1.1 0 0 0-.891-.308c-.979 0-1.463.561-1.463 1.672v6.709H57.43V10.824z" transform="translate(25.729 18.055)" style="fill:#333"/>
                <path data-name="패스 7" d="M43.541 17.977a1.507 1.507 0 0 0 .374 1.1 1.463 1.463 0 0 0 1.1.4 1.661 1.661 0 0 0 1.1-.3 1.1 1.1 0 0 0 .4-.9.924.924 0 0 0-.308-.737 2.342 2.342 0 0 0-.8-.44l-1.98-.66a3.816 3.816 0 0 1-1.771-1.1 2.562 2.562 0 0 1-.583-1.76 2.969 2.969 0 0 1 .22-1.166 2.343 2.343 0 0 1 .707-.97 3.706 3.706 0 0 1 1.265-.66 5.994 5.994 0 0 1 1.848-.253 4.4 4.4 0 0 1 2.848.759 2.573 2.573 0 0 1 .924 2.123v.418h-2.518a1.98 1.98 0 0 0-.275-1.155 1.1 1.1 0 0 0-.968-.374 1.639 1.639 0 0 0-.935.275.9.9 0 0 0-.407.814 1 1 0 0 0 .264.682 1.958 1.958 0 0 0 .968.506l1.7.528a3.871 3.871 0 0 1 1.881 1.1 2.749 2.749 0 0 1 .561 1.815 2.991 2.991 0 0 1-.319 1.408 2.716 2.716 0 0 1-.847.99 3.519 3.519 0 0 1-1.287.561 8.919 8.919 0 0 1-3.629 0 2.914 2.914 0 0 1-1.254-.616 2.2 2.2 0 0 1-.638-1.012A4.069 4.069 0 0 1 41 18.032v-.385h2.54z" transform="translate(24.09 18.051)" style="fill:#333"/>
                <path data-name="패스 8" d="M49.12 13.6a4.058 4.058 0 0 1 .748-1.661 3.134 3.134 0 0 1 1.342-1.023 5.268 5.268 0 0 1 2.035-.352 5.62 5.62 0 0 1 2.112.319 2.914 2.914 0 0 1 1.331 1 4.4 4.4 0 0 1 .7 1.672 12.1 12.1 0 0 1 .2 2.332 10.25 10.25 0 0 1-.22 2.3 4.267 4.267 0 0 1-.737 1.661 2.969 2.969 0 0 1-1.342.99 5.873 5.873 0 0 1-2.046.319 6.159 6.159 0 0 1-2.112-.286 2.881 2.881 0 0 1-1.331-1.029 4.19 4.19 0 0 1-.693-1.672 11.4 11.4 0 0 1-.209-2.332 10.91 10.91 0 0 1 .22-2.288m2.65 3.717a4.1 4.1 0 0 0 .2 1.1 1.573 1.573 0 0 0 .462.737 1.32 1.32 0 0 0 2-.572 8 8 0 0 0 .33-2.727 7.973 7.973 0 0 0-.33-2.716 1.3 1.3 0 0 0-2-.572 1.518 1.518 0 0 0-.462.737 3.948 3.948 0 0 0-.2 1.1v2.859" transform="translate(24.878 18.055)" style="fill:#333"/>
                <path data-name="패스 9" d="M74.946 10.5a3.475 3.475 0 0 0-.836-1.023 3.6 3.6 0 0 0-1.1-.627 3.761 3.761 0 0 0-1.254-.22 3.937 3.937 0 0 0-2.046.517 4.322 4.322 0 0 0-1.41 1.34 6.357 6.357 0 0 0-.814 1.892 9.359 9.359 0 0 0 0 4.322 6.115 6.115 0 0 0 .814 1.892 4.245 4.245 0 0 0 1.408 1.353 4.036 4.036 0 0 0 2.057.506 3.3 3.3 0 0 0 1.507-.308 3.5 3.5 0 0 0 1.166-.924 4.993 4.993 0 0 0 .792-1.364 6.269 6.269 0 0 0 .385-1.683h1.1a7.8 7.8 0 0 1-.528 2.2 5.774 5.774 0 0 1-1.034 1.694 4.465 4.465 0 0 1-1.518 1.1 4.674 4.674 0 0 1-1.914.374 5.125 5.125 0 0 1-2.43-.6 5.323 5.323 0 0 1-1.782-1.529 6.917 6.917 0 0 1-1.1-2.2 10.162 10.162 0 0 1 0-5.3 6.983 6.983 0 0 1 1.1-2.2 5.235 5.235 0 0 1 1.782-1.595 5.5 5.5 0 0 1 4.157-.3 4.806 4.806 0 0 1 1.474.847 4.608 4.608 0 0 1 1.1 1.353 5.246 5.246 0 0 1 .572 1.87H75.5a4.509 4.509 0 0 0-.51-1.387" transform="translate(26.59 17.754)" style="fill:#333"/>
                <path data-name="패스 10" d="M77.455 12.713a2.7 2.7 0 0 1 .726-1.023 3.233 3.233 0 0 1 1.1-.583 4.883 4.883 0 0 1 1.375-.187 5 5 0 0 1 1.1.132 2.65 2.65 0 0 1 1.034.451 2.529 2.529 0 0 1 .737.957 3.816 3.816 0 0 1 .286 1.584V19.2c0 .473.209.715.627.715a.66.66 0 0 0 .33-.077v1h-.693a1.32 1.32 0 0 1-.638-.121.891.891 0 0 1-.385-.341 1.353 1.353 0 0 1-.176-.539 4.5 4.5 0 0 1 0-.693 9.412 9.412 0 0 1-.572.847 3.1 3.1 0 0 1-.66.6 2.826 2.826 0 0 1-.825.374 4.069 4.069 0 0 1-1.1.132 4.223 4.223 0 0 1-1.1-.154 2.387 2.387 0 0 1-.924-.517 2.288 2.288 0 0 1-.627-.88 3.376 3.376 0 0 1-.22-1.265 2.716 2.716 0 0 1 .4-1.584 2.562 2.562 0 0 1 1.1-.88 5.411 5.411 0 0 1 1.5-.418l1.573-.176a3.762 3.762 0 0 0 .583-.1.979.979 0 0 0 .418-.187.935.935 0 0 0 .264-.4 1.716 1.716 0 0 0 .088-.638 2.485 2.485 0 0 0-.165-.979 1.54 1.54 0 0 0-.495-.616 1.793 1.793 0 0 0-.726-.308 4.4 4.4 0 0 0-.88-.088 2.463 2.463 0 0 0-1.65.539 2.2 2.2 0 0 0-.671 1.716h-1.1a3.926 3.926 0 0 1 .319-1.463m5.3 2.892a.616.616 0 0 1-.4.308l-.495.132c-.451.077-.913.165-1.4.231a6.235 6.235 0 0 0-1.3.308 2.375 2.375 0 0 0-.968.594 1.463 1.463 0 0 0-.385 1.1 1.826 1.826 0 0 0 .165.792 1.727 1.727 0 0 0 .429.6 1.672 1.672 0 0 0 .627.385 2 2 0 0 0 .715.132 3.464 3.464 0 0 0 1.166-.2 2.859 2.859 0 0 0 1.65-1.562 3.2 3.2 0 0 0 .242-1.287v-1.54z" transform="translate(27.666 18.091)" style="fill:#333"/>
                <path data-name="패스 11" d="M86.094 11.193v2.277a3.64 3.64 0 0 1 1.254-1.826 3.024 3.024 0 0 1 2.046-.583v1.188a2.958 2.958 0 0 0-1.309.209 3.09 3.09 0 0 0-1.023.726 3.365 3.365 0 0 0-.66 1.1 3.926 3.926 0 0 0-.242 1.416v5.191h-1.1v-9.7z" transform="translate(28.486 18.104)" style="fill:#333"/>
                <path data-name="패스 12" d="M96.375 21.218v-1.836a2.815 2.815 0 0 1-.495.858 3.3 3.3 0 0 1-.748.671 3.992 3.992 0 0 1-.9.429 3.189 3.189 0 0 1-.946.143 3.431 3.431 0 0 1-1.727-.407 3.3 3.3 0 0 1-1.221-1.1 4.927 4.927 0 0 1-.726-1.639 8.183 8.183 0 0 1-.231-1.969 8.029 8.029 0 0 1 .231-1.958 4.839 4.839 0 0 1 .726-1.639 3.508 3.508 0 0 1 1.221-1.1 3.662 3.662 0 0 1 2.641-.351 3.069 3.069 0 0 1 .858.407 3 3 0 0 1 .726.671 2.881 2.881 0 0 1 .473.913V7.79h1.1v13.428zm-5.807-3.3a4.279 4.279 0 0 0 .495 1.331 3.024 3.024 0 0 0 .88.946 2.31 2.31 0 0 0 1.309.363 2.639 2.639 0 0 0 1.419-.44 2.991 2.991 0 0 0 .946-.946 4.6 4.6 0 0 0 .517-1.254 6.852 6.852 0 0 0 .165-1.5 6.928 6.928 0 0 0-.165-1.5 4.4 4.4 0 0 0-.517-1.32 3.134 3.134 0 0 0-.946-.957 2.639 2.639 0 0 0-1.419-.363 2.31 2.31 0 0 0-1.309.363 3.189 3.189 0 0 0-.88.957 4.113 4.113 0 0 0-.495 1.32 6.928 6.928 0 0 0-.165 1.5 6.854 6.854 0 0 0 .165 1.5" transform="translate(28.917 17.779)" style="fill:#333"/>
                <path data-name="패스 13" d="M103.022 1.6a1.265 1.265 0 1 1-.8-.548 1.276 1.276 0 0 1 .8.548z" transform="translate(30.045 17.104)" style="fill:#333"/>
                <path data-name="패스 14" d="M109.972 12.152a1.276 1.276 0 1 1-1.76-.363 1.276 1.276 0 0 1 1.76.363z" transform="translate(30.738 18.157)" style="fill:#333"/>
                <path data-name="패스 15" d="M99.976 4.167a1.276 1.276 0 1 1-1.639.737 1.276 1.276 0 0 1 1.639-.737z" transform="translate(29.802 17.409)" style="fill:#333"/>
                <path data-name="패스 16" d="M111.8 8.617a1.265 1.265 0 1 1-1.628.737 1.265 1.265 0 0 1 1.628-.737z" transform="translate(30.983 17.853)" style="fill:#333"/>
                <path data-name="패스 17" d="M99.014 8a1.266 1.266 0 1 1-.885 1.556A1.266 1.266 0 0 1 99.014 8z" transform="translate(29.785 17.796)" style="fill:#333"/>
                <path data-name="패스 18" d="M111.195 4.684a1.265 1.265 0 1 1-.891 1.562 1.287 1.287 0 0 1 .891-1.562z" transform="translate(31 17.465)" style="fill:#333"/>
                <path data-name="패스 19" d="M100.515 11.733a1.265 1.265 0 1 1-.114 1.4 1.265 1.265 0 0 1 .114-1.4z" transform="translate(30 18.125)" style="fill:#333"/>
                <path data-name="패스 20" d="M108.395 1.853a1.268 1.268 0 1 1 1.98 1.584 1.254 1.254 0 0 1-1.771.2 1.276 1.276 0 0 1-.209-1.782z" transform="translate(30.787 17.139)" style="fill:#333"/>
                <path data-name="패스 21" d="M103.89 13.842a1.265 1.265 0 1 1 .331.911 1.276 1.276 0 0 1-.331-.911z" transform="translate(30.364 18.26)" style="fill:#333"/>
                <path data-name="패스 22" d="M104.47 1.21a1.266 1.266 0 1 1 2.53.11 1.254 1.254 0 0 1-1.32 1.21 1.276 1.276 0 0 1-1.21-1.32z" transform="translate(30.422 17.002)" style="fill:#333"/>
                <path data-name="패스 23" d="m109.718 8.53-1.418-.539 1.485-.4a.792.792 0 0 0-.418-1.518l-1.474.407.957-1.188a.792.792 0 0 0-1.232-.99l-.957 1.2.077-1.518a.792.792 0 0 0-1.573-.077l-.065 1.51-.814-1.276a.781.781 0 0 0-1.1-.231.792.792 0 0 0-.231 1.1l.814 1.265-1.452-.55a.792.792 0 0 0-1.012.462.781.781 0 0 0 .462 1l1.452.55-1.5.418a.77.77 0 0 0-.55.957.781.781 0 0 0 .968.55l1.485-.407-.968 1.21a.814.814 0 0 0 .121 1.1.8.8 0 0 0 1.1-.132l.968-1.21-.066 1.551a.792.792 0 1 0 1.573.077l.066-1.573.858 1.3a.785.785 0 1 0 1.309-.869l-.836-1.276 1.419.539a.792.792 0 0 0 .55-1.474z" transform="translate(30.091 17.325)" style="fill:#333"/>
            </g>
        </g>
    </g>
</svg>
